<svg width="29" height="27" viewBox="0 0 29 27" fill="none" xmlns="http://www.w3.org/2000/svg">
<g filter="url(#filter0_d_13002_1352)">
<path d="M14.3711 6.25H14.5C15.2448 6.25 15.8893 6.52214 16.4336 7.06641C16.9779 7.61068 17.25 8.25521 17.25 9V9.17188L14.3711 6.25ZM10.418 6.98047C10.0742 7.66797 9.90234 8.34115 9.90234 9C9.90234 10.2604 10.3464 11.349 11.2344 12.2656C12.151 13.1536 13.2396 13.5977 14.5 13.5977C15.1589 13.5977 15.832 13.4258 16.5195 13.082L15.1016 11.6641C14.8724 11.7214 14.6719 11.75 14.5 11.75C13.7552 11.75 13.1107 11.4779 12.5664 10.9336C12.0221 10.3893 11.75 9.74479 11.75 9C11.75 8.82812 11.7786 8.6276 11.8359 8.39844L10.418 6.98047ZM5.34766 1.91016L6.50781 0.75L22.75 16.9922L21.5898 18.1523C21.4466 18.0091 20.9883 17.5651 20.2148 16.8203C19.4701 16.0755 18.8971 15.5026 18.4961 15.1016C17.2643 15.6172 15.9323 15.875 14.5 15.875C12.237 15.875 10.1888 15.2448 8.35547 13.9844C6.52214 12.724 5.20443 11.0625 4.40234 9C4.71745 8.25521 5.20443 7.4388 5.86328 6.55078C6.55078 5.63411 7.20964 4.93229 7.83984 4.44531C7.49609 4.10156 7.00911 3.61458 6.37891 2.98438C5.77734 2.35417 5.43359 1.99609 5.34766 1.91016ZM14.5 4.40234C13.9271 4.40234 13.3685 4.51693 12.8242 4.74609L10.8477 2.76953C11.9648 2.33984 13.1823 2.125 14.5 2.125C16.763 2.125 18.7969 2.75521 20.6016 4.01562C22.4349 5.27604 23.7526 6.9375 24.5547 9C23.8672 10.6901 22.8216 12.1367 21.418 13.3398L18.7539 10.6758C18.9831 10.1315 19.0977 9.57292 19.0977 9C19.0977 7.73958 18.6393 6.66536 17.7227 5.77734C16.8346 4.86068 15.7604 4.40234 14.5 4.40234Z" fill="white" fill-opacity="0.75" shape-rendering="crispEdges"/>
</g>
<defs>
<filter id="filter0_d_13002_1352" x="0.402344" y="0.75" width="28.1523" height="25.4023" filterUnits="userSpaceOnUse" color-interpolation-filters="sRGB">
<feFlood flood-opacity="0" result="BackgroundImageFix"/>
<feColorMatrix in="SourceAlpha" type="matrix" values="0 0 0 0 0 0 0 0 0 0 0 0 0 0 0 0 0 0 127 0" result="hardAlpha"/>
<feOffset dy="4"/>
<feGaussianBlur stdDeviation="2"/>
<feComposite in2="hardAlpha" operator="out"/>
<feColorMatrix type="matrix" values="0 0 0 0 0 0 0 0 0 0 0 0 0 0 0 0 0 0 0.25 0"/>
<feBlend mode="normal" in2="BackgroundImageFix" result="effect1_dropShadow_13002_1352"/>
<feBlend mode="normal" in="SourceGraphic" in2="effect1_dropShadow_13002_1352" result="shape"/>
</filter>
</defs>
</svg>
